<svg width="1024" height="1024" viewBox="0 0 1024 1024" fill="none" xmlns="http://www.w3.org/2000/svg">
<g clip-path="url(#clip0_45_2)">
<rect width="1024" height="1024" fill="white"/>
<path d="M587.725 760.273C526.777 810.712 439.634 808.889 380.92 751.858C367.193 738.525 354.362 724.264 339.655 711.929C337.059 709.752 334.11 707.288 334.661 702.586C340.902 700.939 346.111 704.032 351.276 706.083C412.502 730.396 467.752 719.138 514.79 674.669C563.827 628.309 610.66 579.609 658.172 531.651C678.28 511.353 678.808 486.039 660.36 469.952C644.335 455.978 622.066 457.058 605.031 473.18C591.835 485.67 579.005 498.558 566.293 511.545C560.414 517.552 556.069 518.475 549.641 511.538C529.128 489.403 508.082 467.753 486.906 446.246C481.451 440.706 480.641 437.261 486.986 431.495C504.752 415.351 521.673 398.298 540.173 382.927C567.983 359.821 599.631 349.794 635.911 348.442C694.917 346.245 770.788 396.813 782.857 471.135C789.898 514.492 781.636 554.872 754.656 590.654C734.208 617.771 708.434 639.752 684.859 663.83C653.103 696.265 620.499 727.87 587.725 760.273Z" fill="black"/>
<rect x="350.772" y="735.594" width="170.312" height="73.0574" transform="rotate(-45 350.772 735.594)" fill="white"/>
<rect x="214.406" y="791.735" width="170.312" height="73.0574" transform="rotate(-45 214.406 791.735)" fill="white"/>
<path d="M411.925 240.141C472.872 189.702 560.016 191.524 618.729 248.555C632.457 261.889 645.287 276.149 659.995 288.485C662.59 290.662 665.54 293.126 664.988 297.828C658.747 299.475 653.539 296.381 648.374 294.33C587.148 270.018 531.898 281.275 484.86 325.745C435.823 372.104 388.99 420.804 341.478 468.763C321.37 489.06 320.842 514.374 339.29 530.462C355.314 544.435 377.583 543.356 394.618 527.233C407.815 514.744 420.645 501.855 433.356 488.869C439.236 482.862 443.581 481.939 450.009 488.875C470.521 511.011 491.568 532.66 512.743 554.167C518.199 559.708 519.009 563.153 512.664 568.919C494.898 585.063 477.977 602.116 459.477 617.487C431.667 640.593 400.019 650.62 363.739 651.971C304.733 654.169 228.861 603.601 216.792 529.279C209.752 485.921 218.013 445.542 244.994 409.76C265.441 382.643 291.216 360.662 314.79 336.584C346.547 304.149 379.151 272.543 411.925 240.141Z" fill="black"/>
<rect x="648.878" y="264.82" width="170.312" height="73.0574" transform="rotate(135 648.878 264.82)" fill="white"/>
<rect x="785.243" y="208.678" width="170.312" height="73.0574" transform="rotate(135 785.243 208.678)" fill="white"/>
</g>
<defs>
<clipPath id="clip0_45_2">
<rect width="1024" height="1024" fill="white"/>
</clipPath>
</defs>
</svg>
