<svg width="396" height="396" viewBox="0 0 396 396" fill="none" xmlns="http://www.w3.org/2000/svg">
<g clip-path="url(#clip0_464_17)">
<mask id="mask0_464_17" style="mask-type:luminance" maskUnits="userSpaceOnUse" x="-1" y="0" width="468" height="396">
<path d="M-0.597656 0H466.335V396H-0.597656V0Z" fill="white"/>
</mask>
<g mask="url(#mask0_464_17)">
<path d="M223.615 395.952L37.599 231.467L105.271 231.483L169.328 288.202V216.236H20.3802L-0.359375 197.899L223.359 0V164.799H169.328V107.568L86.8646 180.026H223.615V395.952ZM51.4531 236.088L216.745 382.235V184.646H72.9635L176.193 93.9364V160.174H216.516V13.7003L8.26562 197.899L23.7812 211.616H176.193V301.919L101.87 236.088H51.4531ZM242.38 395.968V0.149048L296.427 48.0699V180.026H336.26V83.1969L390.307 130.937V265.015L336.26 312.936V216.236H296.427V348.031L242.38 395.968ZM249.245 13.8816V382.235L289.562 346.484V211.616H343.125V299.203L383.443 263.452V132.5L343.125 96.8932V184.662H289.562V49.6329L249.245 13.8816Z" fill="#010101"/>
</g>
</g>
<defs>
<clipPath id="clip0_464_17">
<rect width="396" height="396" fill="white"/>
</clipPath>
</defs>
</svg>
