<svg width="512" height="512" viewBox="0 0 512 512" fill="none" xmlns="http://www.w3.org/2000/svg">
<mask id="mask0_476_2" style="mask-type:luminance" maskUnits="userSpaceOnUse" x="124" y="56" width="265" height="400">
<path d="M124 56H389V455.439H124V56Z" fill="white"/>
</mask>
<g mask="url(#mask0_476_2)">
<path d="M386.061 341.385C369.443 268.874 314.049 244.075 314.049 244.075C314.049 244.075 321.73 259.183 326.007 280.583C330.289 302.741 326.638 328.67 306.748 341.138C294.281 348.939 275.648 346.672 264.695 336.098C252.607 324.646 249.966 306.392 255.253 290.778C257.267 284.108 260.792 277.438 264.695 271.393C266.205 269 267.715 266.611 269.104 264.218L278.672 248.61C317.195 186.546 306.622 106.107 253.49 56C253.49 56 280.435 120.957 209.549 191.833C176.439 224.943 145.97 262.961 131.998 306.644C123.434 333.71 121.925 364.047 132.624 390.734C144.334 420.319 168.128 443.86 197.339 455.439C97.1212 365.305 146.728 289.774 224.531 217.767C237.625 205.431 258.777 218.146 253.743 235.39C251.602 242.565 248.456 249.488 244.174 255.785C222.395 286.249 217.482 326.908 245.431 355.615C258.272 368.703 276.784 375.126 295.164 373.864C317.827 372.101 335.071 358.887 345.397 340.885C349.048 334.462 358.743 335.598 360.632 342.774C360.632 342.9 360.632 342.9 360.632 343.021C368.564 376.636 361.384 410.624 338.6 437.311C333.182 443.86 327.143 450.026 320.341 455.439C328.905 453.177 337.086 449.021 344.513 443.987C378.381 421.072 395.125 380.539 386.061 341.385Z" fill="black"/>
</g>
</svg>
